<svg width="1000" height="1000" viewBox="0 0 1000 1000" fill="none" xmlns="http://www.w3.org/2000/svg">
<rect width="1000" height="1000" fill="white"/>
<path d="M865.913 560.18C860.073 563.608 853.725 564.601 846.919 564.31C839.456 563.992 831.97 564.14 824.494 564.147C810.734 564.16 800.999 555.143 800.883 542.131C800.659 516.93 796.559 492.265 788.985 468.169C777.54 431.759 759.54 398.54 734.619 368.726C711.564 341.144 684.074 318.503 652.161 300.626C621.426 283.408 588.45 271.923 553.35 266.253C507.745 258.885 462.539 261.115 417.898 272.812C387.523 280.77 359.25 293.14 333.182 309.908C301.421 330.337 274.549 355.488 252.921 385.697C228.467 419.853 212.258 457.131 204.304 497.773C198.119 529.378 197.716 561.026 202.976 592.665C207.432 619.466 215.935 645.146 228.31 669.712C243.706 700.272 263.838 727.554 289.003 751.493C311.065 772.479 336.006 789.726 363.652 803.536C391.297 817.346 420.446 827.119 451.188 831.88C468.295 834.53 485.754 835.27 503.088 836.414C515.119 837.209 525.191 845.496 525.643 855.968C525.949 863.067 526.177 870.17 526.373 877.273C526.466 880.648 526.664 884.048 526.363 887.4C525.37 898.464 515.295 907.398 503.428 907.585C483.04 907.907 462.799 906.268 442.654 903.256C413.073 898.834 384.632 890.657 357.163 879.523C326.156 866.955 297.31 850.822 270.792 830.937C244.966 811.57 222.03 789.55 202.219 764.601C178.215 734.371 159.545 701.405 146.269 665.683C134.524 634.08 127.494 601.548 125.574 568.099C123.052 524.147 128.823 481.104 143.195 439.26C155.941 402.148 174.747 367.934 199.031 336.387C224.322 303.533 254.676 275.636 289.972 252.786C303.975 243.721 319.335 236.55 334.487 228.377C335.096 228.074 335.297 227.911 335.497 227.747C335.497 227.747 335.42 227.743 335.683 227.742C337.992 226.78 340.039 225.82 342.333 224.829C343.79 224.261 345 223.724 346.447 223.173C351.461 221.17 356.26 219.228 361.006 217.176C363.487 216.104 365.769 214.533 368.33 213.729C372.903 212.293 377.618 211.269 382.508 210.097C383.284 209.86 383.827 209.597 384.399 209.35C384.428 209.366 384.461 209.31 384.719 209.329C385.786 209.079 386.595 208.81 387.702 208.551C388.352 208.401 388.704 208.242 389.14 208.142C389.395 208.195 389.486 208.111 389.816 207.92C390.519 207.717 390.902 207.543 391.376 207.426C391.632 207.493 391.75 207.427 392.099 207.223C395.643 206.273 398.906 205.383 402.44 204.52C403.385 204.337 404.059 204.126 404.835 203.948C404.937 203.982 405.077 203.827 405.379 203.851C408.347 203.204 411.013 202.533 413.896 201.886C414.532 201.802 414.951 201.694 415.654 201.619C417.571 201.235 419.203 200.817 421.126 200.425C441.059 198.097 460.638 194.696 480.358 193.61C519.922 191.43 559.069 195.149 597.524 204.624C602.773 205.917 608.142 206.801 613.338 208.254C617.811 209.504 622.117 211.296 626.704 212.988C628.706 213.7 630.502 214.273 632.518 215.006C644.773 220.056 632.518 215.006 644.773 220.056C655.428 224.051 644.773 220.056 649.531 221.931C655.428 224.051 649.531 221.931 655.428 224.051C657.674 224.828 659.657 225.584 661.787 226.539C669.801 230.596 677.915 234.064 685.477 238.403C697.808 245.478 709.778 253.12 722.02 260.728C747.086 278.407 769.595 298.408 789.422 321.002C817.661 353.182 839.501 388.976 854.167 428.552C867.45 464.393 874.408 501.346 874.996 539.399C875.126 547.824 872.374 554.608 865.913 560.18Z" fill="#3E3EF8"/>
<path d="M347.862 480.132C348.879 472.024 352.714 465.949 360.113 462.227C367.428 458.548 374.88 458.829 381.865 462.821C408.532 478.063 435.127 493.419 461.658 508.874C465.176 510.923 467.957 511.461 472.006 509.684C486.829 503.178 502.302 502.713 517.955 506.708C520.102 507.255 521.5 507.002 523.21 505.594C564.239 471.818 605.335 438.116 646.399 404.378C655.391 396.991 664.292 389.504 673.26 382.091C683.489 373.636 696.667 373.872 705.179 382.626C713.552 391.237 712.883 404.696 703.646 413.527C660.281 454.987 616.916 496.447 573.554 537.911C570.531 540.802 567.654 543.844 564.486 546.582C562.418 548.369 561.935 550.129 562.531 552.721C566.048 568.007 564.165 582.686 555.813 596.256C542.745 617.49 522.988 628.295 497.177 627.701C472.893 627.142 454.43 616.259 442.129 596.304C435.744 585.947 433.449 574.579 434.426 562.688C434.688 559.495 433.666 557.678 431.097 555.73C406.102 536.773 381.185 517.722 356.343 498.584C350.38 493.991 347.57 487.801 347.862 480.132ZM473.516 558.075C471.251 567.171 473.397 575.133 480.319 581.846C489.293 590.549 504.313 591.492 514.978 584.041C525.304 576.828 528.388 563.7 522.059 552.837C516.655 543.562 508.053 539.338 497.052 540.071C485.27 540.856 477.834 547.305 473.516 558.075Z" fill="#1F2A44"/>
<path d="M415.532 178.554C415.533 178.256 415.533 177.958 415.499 177.119C415.371 174.608 415.2 172.638 415.196 170.668C415.169 156.615 415.33 142.56 415.103 128.511C415 122.135 415.671 116.018 418.65 110.071C418.967 109.576 419.106 109.197 419.434 108.675C422.139 105.828 424.656 103.126 427.421 100.387C429.211 99.4262 430.751 98.5007 432.55 97.5704C434.102 97.0982 435.396 96.6308 436.978 96.1846C438.785 95.9253 440.304 95.6447 442.137 95.4028C445.975 95.0994 449.499 94.7568 453.023 94.4154C475.791 92.2092 498.596 91.2358 521.463 92.6888C531.205 93.3079 540.938 94.0606 550.904 94.8355C551.452 94.8919 551.772 94.8655 552.338 94.9506C553.667 95.1604 554.75 95.2587 556.105 95.4473C557.329 95.5517 558.281 95.5658 559.498 95.7055C574.946 98.0949 585.619 108.263 585.891 121.711C586.246 139.288 586.053 156.877 585.894 174.459C585.831 181.332 580.317 185.747 573.225 185.119C571.884 185.001 570.544 184.858 569.208 184.694C535.708 180.572 502.097 179.052 468.386 181.447C454.849 182.409 441.376 184.184 427.591 185.523C424.55 184.582 421.793 183.707 418.844 182.689C417.613 181.217 416.572 179.885 415.532 178.554Z" fill="#3E3EF8"/>
<path d="M690.292 165.335C700.439 157.256 711.507 156.131 723.466 161.273C745.648 170.811 766.168 182.91 785.108 197.423C794.259 204.436 798.148 217.022 792.487 227.022C786.504 237.59 778.656 247.205 771.505 257.438C771.155 257.731 770.922 257.824 770.349 258.129C767.201 259.624 764.394 260.906 761.587 262.188C761.587 262.188 761.262 262.126 760.818 262.181C754.218 262.709 748.938 260.939 744.395 256.909C742.28 255.032 739.843 253.483 737.432 251.588C735.185 249.893 733.058 248.396 730.811 246.714C730.036 246.18 729.382 245.83 728.649 245.335C728.392 245.028 728.18 244.968 727.936 245.008C722.476 241.575 717.011 238.149 711.56 234.704C708.272 232.626 705.007 230.517 701.326 228.208C700.385 227.781 699.851 227.568 699.317 227.355C699.317 227.355 699.325 227.436 699.272 227.261C698.971 227.018 698.723 226.949 698.474 226.881C696.176 225.83 693.878 224.779 691.408 223.327C690.962 222.829 690.687 222.732 690.413 222.636C685.335 220.21 680.258 217.784 674.961 214.946C673.865 213.676 672.987 212.816 672.109 211.956C667.812 206.85 668.813 201.452 671.392 196.131C673.284 192.229 675.572 188.501 677.885 184.272C678.572 182.832 679.056 181.817 679.54 180.801C681.131 178.139 682.721 175.476 684.467 172.486C684.624 172.159 684.623 171.871 684.623 171.871C685.982 170.27 687.341 168.669 688.966 166.815C689.444 166.442 689.552 166.266 689.556 166.032C689.556 166.032 689.644 166.033 689.806 165.951C690.177 165.747 690.285 165.569 690.292 165.335Z" fill="#3E3EF8"/>
<path d="M210.806 233.319C200.912 220.207 203.675 205.449 216.989 195.724C230.598 185.783 244.431 176.247 259.852 168.982C266.203 165.989 272.563 162.978 279.092 160.367C292.453 155.025 307.784 159.934 314.999 171.982C319.897 180.163 324.428 188.555 328.82 196.995C332.815 204.672 329.413 212.946 321.442 216.604C297.777 227.462 275.636 240.615 255.462 256.676C246.405 263.885 237.017 264.137 228.195 257.311C227.256 256.585 226.324 255.764 225.66 254.815C220.717 247.746 215.843 240.634 210.806 233.319Z" fill="#3E3EF8"/>
<path d="M550.275 882.756C548.501 872.842 546.724 863.214 545.154 853.556C543.613 844.075 551.501 833.631 561.424 831.039C576.614 827.072 591.76 822.937 606.82 818.548C618.571 815.124 629.402 819.908 633.841 830.797C636.891 838.278 640.321 845.618 643.408 853.085C648.262 864.828 642.536 877.906 630.073 881.95C612.949 887.506 595.666 892.673 578.272 897.411C565.818 900.802 554.126 894.372 550.275 882.756Z" fill="#3E3EF8"/>
<path d="M861.519 594.056C867.106 600.651 868.269 607.808 865.976 615.626C861.282 631.632 856.9 647.726 851.88 663.638C847.679 676.953 834.489 682.339 820.845 677.088C813.596 674.299 806.235 671.764 798.876 669.242C787.138 665.217 781.677 653.743 785.224 642.393C789.57 628.487 793.393 614.414 796.862 600.284C799.771 588.433 809.994 581.491 822.657 583.502C830.986 584.825 839.34 586.029 847.709 587.093C853.181 587.789 857.748 589.885 861.519 594.056Z" fill="#3E3EF8"/>
<path d="M708.378 844.379C702.767 847.702 697.658 851.51 691.897 853.898C682.029 857.988 670.525 854.136 665.016 845.348C659.881 837.157 655.015 828.803 650.329 820.372C645.741 812.117 649.512 800.848 658.006 795.04C671.205 786.015 684.31 776.859 697.262 767.515C705.545 761.539 718.147 762.716 725.496 770.596C731.508 777.042 737.526 783.484 743.528 789.939C751.355 798.355 750.364 812.794 741.187 819.854C730.442 828.12 719.464 836.113 708.378 844.379Z" fill="#3E3EF8"/>
<path d="M736.243 755.008C729.532 746.842 729.974 736.566 736.241 728.381C744.951 717.007 753.372 705.411 761.39 693.587C767.484 684.601 779.692 681.054 789.599 686.188C797.015 690.032 804.419 693.899 811.882 697.659C823.91 703.72 828.441 717.24 821.167 728.341C812.056 742.244 802.098 755.644 792.552 769.29C787.396 776.662 780.17 780.373 771.008 778.98C766.876 778.351 762.566 776.34 759.239 773.861C751.348 767.984 743.996 761.454 736.243 755.008Z" fill="#3E3EF8"/>
<path d="M522.917 772.071C522.899 778.941 522.924 785.463 522.855 791.983C522.724 804.478 512.681 814.073 499.577 814.28C486.054 814.494 475.107 805.065 474.893 792.511C474.647 778.077 474.661 763.632 474.919 749.197C475.142 736.666 486.098 726.976 499.38 727.057C512.094 727.135 522.618 737.055 522.863 749.365C523.011 756.815 522.907 764.27 522.917 772.071Z" fill="#1F2A44"/>
<path d="M515.252 367.247C507.1 373.724 498.255 375.641 488.768 371.219C479.358 366.833 474.691 359.426 474.817 349.267C474.98 336.108 474.698 322.944 474.912 309.787C475.098 298.385 484.287 288.921 495.907 287.653C508.031 286.329 519.167 293.397 522.112 304.453C522.705 306.678 522.857 309.058 522.868 311.367C522.927 323.945 522.761 336.524 522.912 349.101C522.997 356.146 520.584 362.08 515.252 367.247Z" fill="#1F2A44"/>
<path d="M694.897 563.711C685.856 556.794 682.836 547.363 686.415 537.767C689.891 528.447 698.68 522.637 709.606 522.588C722.581 522.53 735.557 522.513 748.531 522.591C762.54 522.675 772.822 532.801 772.782 546.318C772.747 558.254 761.803 568.094 748.478 568.114C735.38 568.134 722.283 568.085 709.185 568.101C704.004 568.108 699.259 566.906 694.897 563.711Z" fill="#1F2A44"/>
<path d="M242.249 524.934C246.05 524.059 249.593 522.726 253.162 522.657C266.263 522.404 279.374 522.516 292.48 522.597C302.641 522.66 311.524 528.433 314.81 536.913C318.573 546.626 316.048 556.266 307.948 562.89C303.584 566.457 298.434 568.09 292.726 568.105C279.742 568.14 266.758 568.13 253.774 568.123C242.082 568.117 232.563 561.363 229.763 551.11C226.984 540.938 231.86 530.56 242.249 524.934Z" fill="#1F2A44"/>
</svg>
